<?xml version="1.0" standalone="no"?>
<!DOCTYPE svg PUBLIC "-//W3C//DTD SVG 20010904//EN"
 "http://www.w3.org/TR/2001/REC-SVG-20010904/DTD/svg10.dtd">
<svg version="1.0" xmlns="http://www.w3.org/2000/svg"
 width="600.000000pt" height="600.000000pt" viewBox="0 0 600.000000 600.000000"
 preserveAspectRatio="xMidYMid meet">
<metadata>
Created by potrace 1.14, written by Peter Selinger 2001-2017
</metadata>
<g transform="translate(0.000000,600.000000) scale(0.100000,-0.100000)"
fill="#000000" stroke="none">
<path d="M2798 5995 c-1 -1 -37 -5 -78 -9 -41 -3 -86 -8 -100 -10 -14 -3 -43
-7 -65 -10 -79 -11 -111 -18 -220 -42 -60 -14 -119 -27 -129 -29 -81 -18 -348
-118 -481 -180 -111 -52 -298 -155 -303 -167 -2 -4 -10 -8 -18 -8 -8 0 -14 -4
-14 -10 0 -5 -4 -10 -9 -10 -12 0 -105 -61 -109 -72 -2 -4 -8 -8 -13 -8 -6 0
-15 -5 -22 -10 -7 -6 -30 -24 -52 -41 -170 -128 -403 -355 -515 -499 -19 -25
-39 -50 -45 -57 -20 -24 -30 -39 -74 -103 -25 -36 -48 -67 -51 -70 -4 -3 -22
-31 -41 -63 -19 -32 -46 -79 -62 -105 -15 -26 -32 -59 -38 -74 -6 -16 -14 -28
-18 -28 -4 0 -14 -18 -21 -40 -7 -22 -17 -40 -22 -40 -4 0 -8 -8 -8 -18 0 -10
-6 -26 -13 -37 -8 -11 -21 -40 -31 -65 -10 -25 -24 -58 -31 -75 -12 -27 -52
-134 -59 -160 -2 -5 -6 -17 -9 -25 -10 -26 -56 -192 -68 -245 -31 -141 -52
-265 -67 -405 -14 -135 -4 -642 13 -671 2 -3 6 -25 9 -50 9 -66 33 -200 42
-231 3 -9 7 -26 9 -38 2 -12 6 -29 9 -38 13 -48 49 -169 54 -182 3 -8 6 -17 6
-20 2 -9 37 -102 58 -155 11 -27 25 -63 31 -80 21 -53 142 -288 185 -359 23
-37 42 -72 42 -77 0 -5 4 -9 8 -9 5 0 15 -12 23 -27 8 -16 17 -30 20 -33 3 -3
20 -27 38 -53 119 -176 367 -442 531 -572 41 -33 77 -62 80 -65 22 -25 300
-210 315 -210 5 0 16 -6 24 -14 15 -13 273 -146 284 -146 2 0 22 -8 43 -17 22
-9 41 -17 44 -18 3 -1 22 -9 43 -18 62 -27 245 -84 357 -111 147 -35 250 -53
425 -75 72 -9 571 -7 615 2 14 3 48 8 75 12 230 28 571 119 753 201 29 13 55
24 57 24 27 0 366 186 469 257 65 46 189 136 196 143 3 3 32 27 65 55 132 110
445 443 445 474 0 6 3 11 8 11 4 0 18 17 32 38 14 20 27 39 31 42 13 12 69
100 69 109 0 6 5 11 10 11 6 0 10 6 10 14 0 8 3 16 8 18 9 4 89 141 97 168 4
11 11 20 16 20 5 0 9 5 9 10 0 6 23 58 50 115 28 57 50 107 50 109 0 3 5 17
12 33 6 15 12 30 13 33 1 3 5 12 8 20 47 114 139 445 151 545 3 22 7 51 10 65
6 30 14 93 23 180 15 134 8 552 -12 660 -2 14 -6 43 -9 65 -7 55 -22 140 -36
200 -6 28 -13 57 -15 65 -21 91 -84 290 -132 410 -69 177 -262 533 -295 548
-5 2 -8 8 -8 14 0 11 -130 188 -161 219 -11 11 -17 19 -15 19 19 0 -259 279
-374 376 -115 96 -234 184 -248 184 -6 0 -12 3 -14 8 -4 9 -130 91 -173 112
-16 8 -32 18 -35 21 -6 7 -299 150 -314 154 -6 1 -23 7 -37 13 -54 22 -205 74
-228 78 -14 3 -28 7 -33 10 -29 18 -291 74 -438 94 -41 6 -88 13 -105 16 -33
6 -501 14 -507 9z"/>
</g>
</svg>
